<?xml version="1.0" encoding="UTF-8" standalone="no"?>
<!DOCTYPE svg PUBLIC "-//W3C//DTD SVG 1.1//EN"
 "http://www.w3.org/Graphics/SVG/1.1/DTD/svg11.dtd">
<!-- Generated by graphviz version 2.43.0 (0)
 -->
<!-- Title: %3 Pages: 1 -->
<svg width="216pt" height="393pt"
 viewBox="0.00 0.00 216.00 393.00" xmlns="http://www.w3.org/2000/svg" xmlns:xlink="http://www.w3.org/1999/xlink">
<g id="graph0" class="graph" transform="scale(1 1) rotate(0) translate(4 389)">
<title>%3</title>
<polygon fill="white" stroke="transparent" points="-4,4 -4,-389 212,-389 212,4 -4,4"/>
<!-- 137588626598000 -->
<g id="node1" class="node">
<title>137588626598000</title>
<polygon fill="#caff70" stroke="black" points="130.5,-31 76.5,-31 76.5,0 130.5,0 130.5,-31"/>
<text text-anchor="middle" x="103.5" y="-7" font-family="monospace" font-size="10.00"> ()</text>
</g>
<!-- 137588636043296 -->
<g id="node2" class="node">
<title>137588636043296</title>
<polygon fill="lightgrey" stroke="black" points="160,-86 47,-86 47,-67 160,-67 160,-86"/>
<text text-anchor="middle" x="103.5" y="-74" font-family="monospace" font-size="10.00">MseLossBackward0</text>
</g>
<!-- 137588636043296&#45;&gt;137588626598000 -->
<g id="edge8" class="edge">
<title>137588636043296&#45;&gt;137588626598000</title>
<path fill="none" stroke="black" d="M103.5,-66.79C103.5,-60.07 103.5,-50.4 103.5,-41.34"/>
<polygon fill="black" stroke="black" points="107,-41.19 103.5,-31.19 100,-41.19 107,-41.19"/>
</g>
<!-- 137588636042864 -->
<g id="node3" class="node">
<title>137588636042864</title>
<polygon fill="lightgrey" stroke="black" points="160,-141 47,-141 47,-122 160,-122 160,-141"/>
<text text-anchor="middle" x="103.5" y="-129" font-family="monospace" font-size="10.00">SqueezeBackward0</text>
</g>
<!-- 137588636042864&#45;&gt;137588636043296 -->
<g id="edge1" class="edge">
<title>137588636042864&#45;&gt;137588636043296</title>
<path fill="none" stroke="black" d="M103.5,-121.75C103.5,-114.8 103.5,-104.85 103.5,-96.13"/>
<polygon fill="black" stroke="black" points="107,-96.09 103.5,-86.09 100,-96.09 107,-96.09"/>
</g>
<!-- 137588636057024 -->
<g id="node4" class="node">
<title>137588636057024</title>
<polygon fill="lightgrey" stroke="black" points="154,-196 53,-196 53,-177 154,-177 154,-196"/>
<text text-anchor="middle" x="103.5" y="-184" font-family="monospace" font-size="10.00">AddmmBackward0</text>
</g>
<!-- 137588636057024&#45;&gt;137588636042864 -->
<g id="edge2" class="edge">
<title>137588636057024&#45;&gt;137588636042864</title>
<path fill="none" stroke="black" d="M103.5,-176.75C103.5,-169.8 103.5,-159.85 103.5,-151.13"/>
<polygon fill="black" stroke="black" points="107,-151.09 103.5,-141.09 100,-151.09 107,-151.09"/>
</g>
<!-- 137588636045936 -->
<g id="node5" class="node">
<title>137588636045936</title>
<polygon fill="lightgrey" stroke="black" points="101,-251 0,-251 0,-232 101,-232 101,-251"/>
<text text-anchor="middle" x="50.5" y="-239" font-family="monospace" font-size="10.00">AccumulateGrad</text>
</g>
<!-- 137588636045936&#45;&gt;137588636057024 -->
<g id="edge3" class="edge">
<title>137588636045936&#45;&gt;137588636057024</title>
<path fill="none" stroke="black" d="M59.25,-231.75C66.97,-224.03 78.4,-212.6 87.72,-203.28"/>
<polygon fill="black" stroke="black" points="90.31,-205.64 94.91,-196.09 85.36,-200.69 90.31,-205.64"/>
</g>
<!-- 137588626596656 -->
<g id="node6" class="node">
<title>137588626596656</title>
<polygon fill="lightblue" stroke="black" points="77.5,-318 23.5,-318 23.5,-287 77.5,-287 77.5,-318"/>
<text text-anchor="middle" x="50.5" y="-294" font-family="monospace" font-size="10.00"> (1)</text>
</g>
<!-- 137588626596656&#45;&gt;137588636045936 -->
<g id="edge4" class="edge">
<title>137588626596656&#45;&gt;137588636045936</title>
<path fill="none" stroke="black" d="M50.5,-286.92C50.5,-279.22 50.5,-269.69 50.5,-261.43"/>
<polygon fill="black" stroke="black" points="54,-261.25 50.5,-251.25 47,-261.25 54,-261.25"/>
</g>
<!-- 137588636045840 -->
<g id="node7" class="node">
<title>137588636045840</title>
<polygon fill="lightgrey" stroke="black" points="196,-251 119,-251 119,-232 196,-232 196,-251"/>
<text text-anchor="middle" x="157.5" y="-239" font-family="monospace" font-size="10.00">TBackward0</text>
</g>
<!-- 137588636045840&#45;&gt;137588636057024 -->
<g id="edge5" class="edge">
<title>137588636045840&#45;&gt;137588636057024</title>
<path fill="none" stroke="black" d="M148.58,-231.75C140.72,-224.03 129.07,-212.6 119.58,-203.28"/>
<polygon fill="black" stroke="black" points="121.84,-200.6 112.25,-196.09 116.94,-205.59 121.84,-200.6"/>
</g>
<!-- 137588636054720 -->
<g id="node8" class="node">
<title>137588636054720</title>
<polygon fill="lightgrey" stroke="black" points="208,-312 107,-312 107,-293 208,-293 208,-312"/>
<text text-anchor="middle" x="157.5" y="-300" font-family="monospace" font-size="10.00">AccumulateGrad</text>
</g>
<!-- 137588636054720&#45;&gt;137588636045840 -->
<g id="edge6" class="edge">
<title>137588636054720&#45;&gt;137588636045840</title>
<path fill="none" stroke="black" d="M157.5,-292.79C157.5,-284.6 157.5,-272.06 157.5,-261.55"/>
<polygon fill="black" stroke="black" points="161,-261.24 157.5,-251.24 154,-261.24 161,-261.24"/>
</g>
<!-- 137588626594832 -->
<g id="node9" class="node">
<title>137588626594832</title>
<polygon fill="lightblue" stroke="black" points="190,-385 125,-385 125,-354 190,-354 190,-385"/>
<text text-anchor="middle" x="157.5" y="-361" font-family="monospace" font-size="10.00"> (1, 10)</text>
</g>
<!-- 137588626594832&#45;&gt;137588636054720 -->
<g id="edge7" class="edge">
<title>137588626594832&#45;&gt;137588636054720</title>
<path fill="none" stroke="black" d="M157.5,-353.75C157.5,-344.39 157.5,-332.19 157.5,-322.16"/>
<polygon fill="black" stroke="black" points="161,-322.02 157.5,-312.02 154,-322.02 161,-322.02"/>
</g>
</g>
</svg>
