<?xml version="1.0" encoding="UTF-8" standalone="no"?>
<!DOCTYPE svg PUBLIC "-//W3C//DTD SVG 1.1//EN"
 "http://www.w3.org/Graphics/SVG/1.1/DTD/svg11.dtd">
<!-- Generated by graphviz version 2.43.0 (0)
 -->
<!-- Title: %3 Pages: 1 -->
<svg width="302pt" height="735pt"
 viewBox="0.00 0.00 302.00 735.00" xmlns="http://www.w3.org/2000/svg" xmlns:xlink="http://www.w3.org/1999/xlink">
<g id="graph0" class="graph" transform="scale(1 1) rotate(0) translate(4 731)">
<title>%3</title>
<polygon fill="white" stroke="transparent" points="-4,4 -4,-731 298,-731 298,4 -4,4"/>
<!-- 137588897899216 -->
<g id="node1" class="node">
<title>137588897899216</title>
<polygon fill="#caff70" stroke="black" points="207.5,-31 153.5,-31 153.5,0 207.5,0 207.5,-31"/>
<text text-anchor="middle" x="180.5" y="-7" font-family="monospace" font-size="10.00"> ()</text>
</g>
<!-- 137588896613856 -->
<g id="node2" class="node">
<title>137588896613856</title>
<polygon fill="lightgrey" stroke="black" points="225,-86 136,-86 136,-67 225,-67 225,-86"/>
<text text-anchor="middle" x="180.5" y="-74" font-family="monospace" font-size="10.00">NegBackward0</text>
</g>
<!-- 137588896613856&#45;&gt;137588897899216 -->
<g id="edge16" class="edge">
<title>137588896613856&#45;&gt;137588897899216</title>
<path fill="none" stroke="black" d="M180.5,-66.79C180.5,-60.07 180.5,-50.4 180.5,-41.34"/>
<polygon fill="black" stroke="black" points="184,-41.19 180.5,-31.19 177,-41.19 184,-41.19"/>
</g>
<!-- 137588896622016 -->
<g id="node3" class="node">
<title>137588896622016</title>
<polygon fill="lightgrey" stroke="black" points="225,-141 136,-141 136,-122 225,-122 225,-141"/>
<text text-anchor="middle" x="180.5" y="-129" font-family="monospace" font-size="10.00">LogBackward0</text>
</g>
<!-- 137588896622016&#45;&gt;137588896613856 -->
<g id="edge1" class="edge">
<title>137588896622016&#45;&gt;137588896613856</title>
<path fill="none" stroke="black" d="M180.5,-121.75C180.5,-114.8 180.5,-104.85 180.5,-96.13"/>
<polygon fill="black" stroke="black" points="184,-96.09 180.5,-86.09 177,-96.09 184,-96.09"/>
</g>
<!-- 137588896619040 -->
<g id="node4" class="node">
<title>137588896619040</title>
<polygon fill="lightgrey" stroke="black" points="234,-196 127,-196 127,-177 234,-177 234,-196"/>
<text text-anchor="middle" x="180.5" y="-184" font-family="monospace" font-size="10.00">SelectBackward0</text>
</g>
<!-- 137588896619040&#45;&gt;137588896622016 -->
<g id="edge2" class="edge">
<title>137588896619040&#45;&gt;137588896622016</title>
<path fill="none" stroke="black" d="M180.5,-176.75C180.5,-169.8 180.5,-159.85 180.5,-151.13"/>
<polygon fill="black" stroke="black" points="184,-151.09 180.5,-141.09 177,-151.09 184,-151.09"/>
</g>
<!-- 137588896622976 -->
<g id="node5" class="node">
<title>137588896622976</title>
<polygon fill="lightgrey" stroke="black" points="234,-251 127,-251 127,-232 234,-232 234,-251"/>
<text text-anchor="middle" x="180.5" y="-239" font-family="monospace" font-size="10.00">SelectBackward0</text>
</g>
<!-- 137588896622976&#45;&gt;137588896619040 -->
<g id="edge3" class="edge">
<title>137588896622976&#45;&gt;137588896619040</title>
<path fill="none" stroke="black" d="M180.5,-231.75C180.5,-224.8 180.5,-214.85 180.5,-206.13"/>
<polygon fill="black" stroke="black" points="184,-206.09 180.5,-196.09 177,-206.09 184,-206.09"/>
</g>
<!-- 137588896619664 -->
<g id="node6" class="node">
<title>137588896619664</title>
<polygon fill="lightgrey" stroke="black" points="237,-306 124,-306 124,-287 237,-287 237,-306"/>
<text text-anchor="middle" x="180.5" y="-294" font-family="monospace" font-size="10.00">SoftmaxBackward0</text>
</g>
<!-- 137588896619664&#45;&gt;137588896622976 -->
<g id="edge4" class="edge">
<title>137588896619664&#45;&gt;137588896622976</title>
<path fill="none" stroke="black" d="M180.5,-286.75C180.5,-279.8 180.5,-269.85 180.5,-261.13"/>
<polygon fill="black" stroke="black" points="184,-261.09 180.5,-251.09 177,-261.09 184,-261.09"/>
</g>
<!-- 137588896615056 -->
<g id="node7" class="node">
<title>137588896615056</title>
<polygon fill="lightgrey" stroke="black" points="222,-361 139,-361 139,-342 222,-342 222,-361"/>
<text text-anchor="middle" x="180.5" y="-349" font-family="monospace" font-size="10.00">MmBackward0</text>
</g>
<!-- 137588896615056&#45;&gt;137588896619664 -->
<g id="edge5" class="edge">
<title>137588896615056&#45;&gt;137588896619664</title>
<path fill="none" stroke="black" d="M180.5,-341.75C180.5,-334.8 180.5,-324.85 180.5,-316.13"/>
<polygon fill="black" stroke="black" points="184,-316.09 180.5,-306.09 177,-316.09 184,-316.09"/>
</g>
<!-- 137588896622304 -->
<g id="node8" class="node">
<title>137588896622304</title>
<polygon fill="lightgrey" stroke="black" points="175,-416 62,-416 62,-397 175,-397 175,-416"/>
<text text-anchor="middle" x="118.5" y="-404" font-family="monospace" font-size="10.00">SigmoidBackward0</text>
</g>
<!-- 137588896622304&#45;&gt;137588896615056 -->
<g id="edge6" class="edge">
<title>137588896622304&#45;&gt;137588896615056</title>
<path fill="none" stroke="black" d="M128.46,-396.98C137.63,-389.15 151.44,-377.34 162.53,-367.86"/>
<polygon fill="black" stroke="black" points="165.03,-370.33 170.36,-361.17 160.48,-365.01 165.03,-370.33"/>
</g>
<!-- 137588896618992 -->
<g id="node9" class="node">
<title>137588896618992</title>
<polygon fill="lightgrey" stroke="black" points="160,-477 77,-477 77,-458 160,-458 160,-477"/>
<text text-anchor="middle" x="118.5" y="-465" font-family="monospace" font-size="10.00">MmBackward0</text>
</g>
<!-- 137588896618992&#45;&gt;137588896622304 -->
<g id="edge7" class="edge">
<title>137588896618992&#45;&gt;137588896622304</title>
<path fill="none" stroke="black" d="M118.5,-457.79C118.5,-449.6 118.5,-437.06 118.5,-426.55"/>
<polygon fill="black" stroke="black" points="122,-426.24 118.5,-416.24 115,-426.24 122,-426.24"/>
</g>
<!-- 137588896619568 -->
<g id="node10" class="node">
<title>137588896619568</title>
<polygon fill="lightgrey" stroke="black" points="113,-538 0,-538 0,-519 113,-519 113,-538"/>
<text text-anchor="middle" x="56.5" y="-526" font-family="monospace" font-size="10.00">SigmoidBackward0</text>
</g>
<!-- 137588896619568&#45;&gt;137588896618992 -->
<g id="edge8" class="edge">
<title>137588896619568&#45;&gt;137588896618992</title>
<path fill="none" stroke="black" d="M65.65,-518.79C75.17,-509.73 90.3,-495.34 101.93,-484.27"/>
<polygon fill="black" stroke="black" points="104.48,-486.67 109.31,-477.24 99.66,-481.6 104.48,-486.67"/>
</g>
<!-- 137588896613472 -->
<g id="node11" class="node">
<title>137588896613472</title>
<polygon fill="lightgrey" stroke="black" points="98,-599 15,-599 15,-580 98,-580 98,-599"/>
<text text-anchor="middle" x="56.5" y="-587" font-family="monospace" font-size="10.00">MmBackward0</text>
</g>
<!-- 137588896613472&#45;&gt;137588896619568 -->
<g id="edge9" class="edge">
<title>137588896613472&#45;&gt;137588896619568</title>
<path fill="none" stroke="black" d="M56.5,-579.79C56.5,-571.6 56.5,-559.06 56.5,-548.55"/>
<polygon fill="black" stroke="black" points="60,-548.24 56.5,-538.24 53,-548.24 60,-548.24"/>
</g>
<!-- 137588896613328 -->
<g id="node12" class="node">
<title>137588896613328</title>
<polygon fill="lightgrey" stroke="black" points="107,-660 6,-660 6,-641 107,-641 107,-660"/>
<text text-anchor="middle" x="56.5" y="-648" font-family="monospace" font-size="10.00">AccumulateGrad</text>
</g>
<!-- 137588896613328&#45;&gt;137588896613472 -->
<g id="edge10" class="edge">
<title>137588896613328&#45;&gt;137588896613472</title>
<path fill="none" stroke="black" d="M56.5,-640.79C56.5,-632.6 56.5,-620.06 56.5,-609.55"/>
<polygon fill="black" stroke="black" points="60,-609.24 56.5,-599.24 53,-609.24 60,-609.24"/>
</g>
<!-- 137588896281136 -->
<g id="node13" class="node">
<title>137588896281136</title>
<polygon fill="lightblue" stroke="black" points="86,-727 27,-727 27,-696 86,-696 86,-727"/>
<text text-anchor="middle" x="56.5" y="-703" font-family="monospace" font-size="10.00"> (3, 3)</text>
</g>
<!-- 137588896281136&#45;&gt;137588896613328 -->
<g id="edge11" class="edge">
<title>137588896281136&#45;&gt;137588896613328</title>
<path fill="none" stroke="black" d="M56.5,-695.92C56.5,-688.22 56.5,-678.69 56.5,-670.43"/>
<polygon fill="black" stroke="black" points="60,-670.25 56.5,-660.25 53,-670.25 60,-670.25"/>
</g>
<!-- 137588896619904 -->
<g id="node14" class="node">
<title>137588896619904</title>
<polygon fill="lightgrey" stroke="black" points="232,-538 131,-538 131,-519 232,-519 232,-538"/>
<text text-anchor="middle" x="181.5" y="-526" font-family="monospace" font-size="10.00">AccumulateGrad</text>
</g>
<!-- 137588896619904&#45;&gt;137588896618992 -->
<g id="edge12" class="edge">
<title>137588896619904&#45;&gt;137588896618992</title>
<path fill="none" stroke="black" d="M172.2,-518.79C162.53,-509.73 147.16,-495.34 135.34,-484.27"/>
<polygon fill="black" stroke="black" points="137.53,-481.52 127.83,-477.24 132.74,-486.63 137.53,-481.52"/>
</g>
<!-- 137588897413552 -->
<g id="node15" class="node">
<title>137588897413552</title>
<polygon fill="lightblue" stroke="black" points="211,-605 152,-605 152,-574 211,-574 211,-605"/>
<text text-anchor="middle" x="181.5" y="-581" font-family="monospace" font-size="10.00"> (3, 3)</text>
</g>
<!-- 137588897413552&#45;&gt;137588896619904 -->
<g id="edge13" class="edge">
<title>137588897413552&#45;&gt;137588896619904</title>
<path fill="none" stroke="black" d="M181.5,-573.92C181.5,-566.22 181.5,-556.69 181.5,-548.43"/>
<polygon fill="black" stroke="black" points="185,-548.25 181.5,-538.25 178,-548.25 185,-548.25"/>
</g>
<!-- 137588896625328 -->
<g id="node16" class="node">
<title>137588896625328</title>
<polygon fill="lightgrey" stroke="black" points="294,-416 193,-416 193,-397 294,-397 294,-416"/>
<text text-anchor="middle" x="243.5" y="-404" font-family="monospace" font-size="10.00">AccumulateGrad</text>
</g>
<!-- 137588896625328&#45;&gt;137588896615056 -->
<g id="edge14" class="edge">
<title>137588896625328&#45;&gt;137588896615056</title>
<path fill="none" stroke="black" d="M233.38,-396.98C224.06,-389.15 210.03,-377.34 198.76,-367.86"/>
<polygon fill="black" stroke="black" points="200.71,-364.93 190.81,-361.17 196.21,-370.29 200.71,-364.93"/>
</g>
<!-- 137588896271536 -->
<g id="node17" class="node">
<title>137588896271536</title>
<polygon fill="lightblue" stroke="black" points="273,-483 214,-483 214,-452 273,-452 273,-483"/>
<text text-anchor="middle" x="243.5" y="-459" font-family="monospace" font-size="10.00"> (3, 3)</text>
</g>
<!-- 137588896271536&#45;&gt;137588896625328 -->
<g id="edge15" class="edge">
<title>137588896271536&#45;&gt;137588896625328</title>
<path fill="none" stroke="black" d="M243.5,-451.92C243.5,-444.22 243.5,-434.69 243.5,-426.43"/>
<polygon fill="black" stroke="black" points="247,-426.25 243.5,-416.25 240,-426.25 247,-426.25"/>
</g>
</g>
</svg>
