<?xml version="1.0" encoding="UTF-8" standalone="no"?>
<!DOCTYPE svg PUBLIC "-//W3C//DTD SVG 1.1//EN"
 "http://www.w3.org/Graphics/SVG/1.1/DTD/svg11.dtd">
<!-- Generated by graphviz version 2.43.0 (0)
 -->
<!-- Title: %3 Pages: 1 -->
<svg width="277pt" height="326pt"
 viewBox="0.00 0.00 277.00 326.00" xmlns="http://www.w3.org/2000/svg" xmlns:xlink="http://www.w3.org/1999/xlink">
<g id="graph0" class="graph" transform="scale(1 1) rotate(0) translate(4 322)">
<title>%3</title>
<polygon fill="white" stroke="transparent" points="-4,4 -4,-322 273,-322 273,4 -4,4"/>
<!-- 137588897409712 -->
<g id="node1" class="node">
<title>137588897409712</title>
<polygon fill="#caff70" stroke="black" points="197.5,-31 143.5,-31 143.5,0 197.5,0 197.5,-31"/>
<text text-anchor="middle" x="170.5" y="-7" font-family="monospace" font-size="10.00"> ()</text>
</g>
<!-- 137588896043056 -->
<g id="node2" class="node">
<title>137588896043056</title>
<polygon fill="lightgrey" stroke="black" points="215,-86 126,-86 126,-67 215,-67 215,-86"/>
<text text-anchor="middle" x="170.5" y="-74" font-family="monospace" font-size="10.00">AddBackward0</text>
</g>
<!-- 137588896043056&#45;&gt;137588897409712 -->
<g id="edge9" class="edge">
<title>137588896043056&#45;&gt;137588897409712</title>
<path fill="none" stroke="black" d="M170.5,-66.79C170.5,-60.07 170.5,-50.4 170.5,-41.34"/>
<polygon fill="black" stroke="black" points="174,-41.19 170.5,-31.19 167,-41.19 174,-41.19"/>
</g>
<!-- 137588896050064 -->
<g id="node3" class="node">
<title>137588896050064</title>
<polygon fill="lightgrey" stroke="black" points="162,-141 73,-141 73,-122 162,-122 162,-141"/>
<text text-anchor="middle" x="117.5" y="-129" font-family="monospace" font-size="10.00">DivBackward0</text>
</g>
<!-- 137588896050064&#45;&gt;137588896043056 -->
<g id="edge1" class="edge">
<title>137588896050064&#45;&gt;137588896043056</title>
<path fill="none" stroke="black" d="M126.25,-121.75C133.97,-114.03 145.4,-102.6 154.72,-93.28"/>
<polygon fill="black" stroke="black" points="157.31,-95.64 161.91,-86.09 152.36,-90.69 157.31,-95.64"/>
</g>
<!-- 137588896043104 -->
<g id="node4" class="node">
<title>137588896043104</title>
<polygon fill="lightgrey" stroke="black" points="89,-196 0,-196 0,-177 89,-177 89,-196"/>
<text text-anchor="middle" x="44.5" y="-184" font-family="monospace" font-size="10.00">PowBackward0</text>
</g>
<!-- 137588896043104&#45;&gt;137588896050064 -->
<g id="edge2" class="edge">
<title>137588896043104&#45;&gt;137588896050064</title>
<path fill="none" stroke="black" d="M56.23,-176.98C67.23,-169 83.92,-156.88 97.1,-147.31"/>
<polygon fill="black" stroke="black" points="99.52,-149.88 105.56,-141.17 95.41,-144.21 99.52,-149.88"/>
</g>
<!-- 137588896050496 -->
<g id="node5" class="node">
<title>137588896050496</title>
<polygon fill="lightgrey" stroke="black" points="202,-251 101,-251 101,-232 202,-232 202,-251"/>
<text text-anchor="middle" x="151.5" y="-239" font-family="monospace" font-size="10.00">AccumulateGrad</text>
</g>
<!-- 137588896050496&#45;&gt;137588896043104 -->
<g id="edge3" class="edge">
<title>137588896050496&#45;&gt;137588896043104</title>
<path fill="none" stroke="black" d="M134.31,-231.98C117.25,-223.54 90.87,-210.47 71.1,-200.68"/>
<polygon fill="black" stroke="black" points="72.52,-197.47 62,-196.17 69.41,-203.75 72.52,-197.47"/>
</g>
<!-- 137588896050352 -->
<g id="node7" class="node">
<title>137588896050352</title>
<polygon fill="lightgrey" stroke="black" points="196,-196 107,-196 107,-177 196,-177 196,-196"/>
<text text-anchor="middle" x="151.5" y="-184" font-family="monospace" font-size="10.00">PowBackward0</text>
</g>
<!-- 137588896050496&#45;&gt;137588896050352 -->
<g id="edge6" class="edge">
<title>137588896050496&#45;&gt;137588896050352</title>
<path fill="none" stroke="black" d="M151.5,-231.75C151.5,-224.8 151.5,-214.85 151.5,-206.13"/>
<polygon fill="black" stroke="black" points="155,-206.09 151.5,-196.09 148,-206.09 155,-206.09"/>
</g>
<!-- 137588896050112 -->
<g id="node8" class="node">
<title>137588896050112</title>
<polygon fill="lightgrey" stroke="black" points="269,-141 180,-141 180,-122 269,-122 269,-141"/>
<text text-anchor="middle" x="224.5" y="-129" font-family="monospace" font-size="10.00">ExpBackward0</text>
</g>
<!-- 137588896050496&#45;&gt;137588896050112 -->
<g id="edge8" class="edge">
<title>137588896050496&#45;&gt;137588896050112</title>
<path fill="none" stroke="black" d="M165.61,-231.95C177.58,-224.03 194.36,-211.19 204.5,-196 213.53,-182.48 218.67,-164.65 221.47,-151.33"/>
<polygon fill="black" stroke="black" points="224.94,-151.86 223.31,-141.39 218.05,-150.59 224.94,-151.86"/>
</g>
<!-- 137588897409904 -->
<g id="node6" class="node">
<title>137588897409904</title>
<polygon fill="lightblue" stroke="black" points="178.5,-318 124.5,-318 124.5,-287 178.5,-287 178.5,-318"/>
<text text-anchor="middle" x="151.5" y="-294" font-family="monospace" font-size="10.00"> ()</text>
</g>
<!-- 137588897409904&#45;&gt;137588896050496 -->
<g id="edge4" class="edge">
<title>137588897409904&#45;&gt;137588896050496</title>
<path fill="none" stroke="black" d="M151.5,-286.92C151.5,-279.22 151.5,-269.69 151.5,-261.43"/>
<polygon fill="black" stroke="black" points="155,-261.25 151.5,-251.25 148,-261.25 155,-261.25"/>
</g>
<!-- 137588896050352&#45;&gt;137588896050064 -->
<g id="edge5" class="edge">
<title>137588896050352&#45;&gt;137588896050064</title>
<path fill="none" stroke="black" d="M145.89,-176.75C141.18,-169.42 134.33,-158.73 128.53,-149.7"/>
<polygon fill="black" stroke="black" points="131.36,-147.62 123.01,-141.09 125.46,-151.4 131.36,-147.62"/>
</g>
<!-- 137588896050112&#45;&gt;137588896043056 -->
<g id="edge7" class="edge">
<title>137588896050112&#45;&gt;137588896043056</title>
<path fill="none" stroke="black" d="M215.58,-121.75C207.72,-114.03 196.07,-102.6 186.58,-93.28"/>
<polygon fill="black" stroke="black" points="188.84,-90.6 179.25,-86.09 183.94,-95.59 188.84,-90.6"/>
</g>
</g>
</svg>
